<?xml version="1.0" ?><!DOCTYPE svg PUBLIC "-//W3C//DTD SVG 1.1//EN" "http://www.w3.org/Graphics/SVG/1.1/DTD/svg11.dtd"><svg viewBox="0 0 64 64" xmlns="http://www.w3.org/2000/svg" xmlns:xlink="http://www.w3.org/1999/xlink"><style>:root>svg{display:none}:root>svg:target{display:block}</style><svg viewBox="0 0 64 64" id="bow-cookie-gift" xmlns="http://www.w3.org/2000/svg"><path d="M45 11H19s-5 10-5 16v26a8 8 0 008 8h20a8 8 0 008-8V27c0-6-5-16-5-16z" fill="#f3e7da"/><circle cx="36" cy="29" r="10" fill="#ac8168"/><circle cx="32" cy="24" r="1" fill="#603913"/><circle cx="40" cy="25" r="1" fill="#603913"/><circle cx="42" cy="29" r="1" fill="#603913"/><circle cx="28" cy="37" r="10" fill="#ffcd62"/><circle cx="22" cy="35" r="1" fill="#603913"/><circle cx="23" cy="39" r="1" fill="#603913"/><circle cx="26" cy="33" r="1" fill="#603913"/><rect height="8" rx="2" ry="2" width="30" x="17" y="3" fill="#f4b1cc"/><circle cx="34" cy="47" r="10" fill="#ddb66a"/><circle cx="28" cy="45" r="1" fill="#603913"/><circle cx="38" cy="43" r="1" fill="#603913"/><circle cx="29" cy="50" r="1" fill="#603913"/><circle cx="33" cy="49" r="1" fill="#603913"/><circle cx="41" cy="47" r="1" fill="#603913"/><circle cx="35" cy="53" r="1" fill="#603913"/><path d="M44 11c0-3.314-1.791-4-4-4s-6 4-6 4 3.791 4 6 4 4-.686 4-4zM30 11s-3.791-4-6-4-4 .686-4 4 1.791 4 4 4 6-4 6-4z" fill="#ef4037"/><path d="M38 12H26a1 1 0 010-2h12a1 1 0 010 2z" fill="#c84037"/><circle cx="32" cy="11" r="3" fill="#c1272d"/></svg><svg viewBox="0 0 60.003 60.003" id="rainbow" xmlns="http://www.w3.org/2000/svg"><path d="M57.972 20.866c.353-1.214.239-2.519-.661-3.407-5.149-5.082-11.353-1.481-11.353 3.542a1 1 0 11-2 0c0-4.064 3.049-7.423 6.978-7.927-.226-5.039-4.384-9.073-9.478-9.073-5.111 0-9.281 4.06-9.481 9.123.829.196 1.632.52 2.378.981a7.954 7.954 0 013.576 4.97 1.001 1.001 0 01-.744 1.203 1.004 1.004 0 01-1.218-.822c-.25-1.6-1.017-3.113-2.487-3.791-5.696-2.628-10.262 2.01-9.178 6.617a1 1 0 01-1.947.457 7.941 7.941 0 01.012-3.674 5.974 5.974 0 00-5.493 2.122 5.992 5.992 0 00-1.175 5.285c.001.012.007.022.008.034a5.966 5.966 0 001.985 3.127.999.999 0 11-1.271 1.544 7.94 7.94 0 01-2.546-3.781 9.453 9.453 0 00-10.49 4.262c-2.035 3.349-1.868 7.615.772 11.06.651.85 1.574 1.417 2.458 2.02a1 1 0 01-.565 1.825.993.993 0 01-.392-.091c.659.391 1.369.701 2.103.956C11.635 37.252 21.486 30 33.004 30a26.85 26.85 0 0116.791 5.877c4.051 3.23 10.169.51 10.208-4.671V24.944c0-1.535-.958-2.731-1.992-3.865-.049-.052-.066-.122-.039-.213z" fill="#d0e8f9"/><path d="M11.029 58.002a22.135 22.135 0 01-.025-1c0-12.131 9.869-22 22-22s22 9.869 22 22c0 .335-.01.668-.025 1h4c.013-.332.025-.665.025-1 0-14.359-11.641-26-26-26s-26 11.641-26 26c0 .335.013.668.025 1h4z" fill="#e64c3c"/><path d="M15.054 58.002c-.018-.333-.051-.662-.051-1 0-9.925 8.075-18 18-18s18 8.075 18 18c0 .338-.032.667-.051 1h4.025c.015-.332.025-.665.025-1 0-12.131-9.869-22-22-22s-22 9.869-22 22c0 .335.01.668.025 1h4.027z" fill="#f0c419"/><path d="M19.054 58.002c-.024-.332-.051-.662-.051-1 0-7.72 6.28-14 14-14s14 6.28 14 14c0 .338-.027.668-.051 1h4c.018-.333.051-.662.051-1 0-9.925-8.075-18-18-18s-18 8.075-18 18c0 .338.032.667.051 1h4z" fill="#71c285"/><path d="M23.054 58.002a10.007 10.007 0 01-.051-1c0-5.514 4.486-10 10-10s10 4.486 10 10c0 .338-.018.671-.051 1h4c.024-.332.051-.662.051-1 0-7.72-6.28-14-14-14s-14 6.28-14 14c0 .338.027.668.051 1h4z" fill="#0096e6"/><path d="M27.094 58.002a5.998 5.998 0 01-.09-1c0-3.309 2.691-6 6-6s6 2.691 6 6c0 .341-.035.674-.09 1h4.04c.033-.329.051-.662.051-1 0-5.514-4.486-10-10-10s-10 4.486-10 10c0 .338.018.671.051 1h4.038z" fill="#546a79"/><g fill="#abcadd"><path d="M52.936 13.068c-.231-6.139-5.284-11.066-11.478-11.066-6.142 0-11.16 4.844-11.47 10.91a8.066 8.066 0 00-1.676.209 7.979 7.979 0 00-5.229 4.052 7.946 7.946 0 00-7.75 2.742 7.941 7.941 0 00-1.81 5.359 11.452 11.452 0 00-11.844 5.344C.083 33.243-.394 36.332.334 39.316s2.575 5.506 5.2 7.102a.999.999 0 101.039-1.708 9.438 9.438 0 01-4.296-5.867 9.437 9.437 0 011.11-7.185 9.456 9.456 0 0110.49-4.262 7.943 7.943 0 002.546 3.781.999.999 0 001.408-.136 1 1 0 00-.137-1.408 5.956 5.956 0 01-1.985-3.127c-.001-.012-.007-.022-.008-.034a5.992 5.992 0 011.175-5.285 5.974 5.974 0 015.493-2.122 7.928 7.928 0 00-.012 3.674 1 1 0 001.947-.457 6.007 6.007 0 014.467-7.215c3.215-.759 6.456 1.245 7.214 4.467.127.537.665.865 1.203.744.537-.127.87-.665.744-1.203a7.954 7.954 0 00-3.576-4.97 7.999 7.999 0 00-2.378-.981c.2-5.063 4.37-9.123 9.481-9.123 5.094 0 9.253 4.033 9.478 9.073-3.929.504-6.978 3.863-6.978 7.927a1 1 0 102 0c0-3.309 2.691-6 6-6s6.046 2.691 6.046 6v3a1 1 0 002 0v-3c-.002-4.079-3.119-7.449-7.069-7.933zM59.003 30.002a1 1 0 00-1 1v.5c0 2.481-2.019 4.5-4.5 4.5s-4.5-2.019-4.5-4.5a1 1 0 10-2 0c0 3.584 2.916 6.5 6.5 6.5 3.415 0 6.243-2.649 6.5-6v-1a1 1 0 00-1-1z"/></g></svg><svg viewBox="0 0 60.003 60.003" id="snow" xmlns="http://www.w3.org/2000/svg"><path d="M11.302 27.284c1.124 0 2.205.181 3.221.508a6.983 6.983 0 011.426-5.958 7.003 7.003 0 017.523-2.224l.012.004a6.988 6.988 0 014.902-4.238 6.967 6.967 0 012.441-.129c-.007-.155-.023-.307-.023-.464 0-2.418.825-4.638 2.198-6.412A18.46 18.46 0 0020.8 2.359c-.041 8.801-7.185 15.924-15.996 15.924-1.291 0-2.539-.169-3.742-.458a18.485 18.485 0 00-.258 2.958c0 3.615 1.053 6.978 2.846 9.828a10.458 10.458 0 017.652-3.327z" fill="#fbd490"/><path d="M59.979 21.612h-.081c.035.304.059.611.059.925a1 1 0 11-2 0c0-3.309-2.691-6-6-6s-6 2.691-6 6a1 1 0 11-2 0c0-4.064 3.049-7.423 6.978-7.927-.226-5.039-4.384-9.073-9.478-9.073-5.111 0-9.281 4.06-9.481 9.123.829.196 1.632.52 2.378.981a7.954 7.954 0 013.576 4.97 1.001 1.001 0 01-.744 1.203 1.005 1.005 0 01-1.203-.744c-.758-3.222-3.999-5.226-7.214-4.467a6.007 6.007 0 00-4.467 7.215 1 1 0 01-1.947.457 7.941 7.941 0 01.012-3.674 5.974 5.974 0 00-5.493 2.122 5.992 5.992 0 00-1.175 5.285c.001.012.007.022.008.034a5.966 5.966 0 001.985 3.127.999.999 0 11-1.271 1.544 7.94 7.94 0 01-2.546-3.781 9.453 9.453 0 00-10.49 4.262 9.437 9.437 0 00-1.11 7.185 9.438 9.438 0 004.296 5.867 1 1 0 01-.52 1.854.993.993 0 01-.392-.091 11.428 11.428 0 005.344 1.593l8.209.003c5.307-.085 9.853-3.36 11.791-7.992 1.963 4.693 6.603 8 12 8 9.374 0 17-7.626 17-17v-10l-.024-1.001z" fill="#d0e8f9"/><path d="M52.936 14.678c-.231-6.139-5.284-11.066-11.478-11.066-6.142 0-11.16 4.844-11.47 10.91a8.066 8.066 0 00-1.676.209 7.979 7.979 0 00-5.229 4.052 7.946 7.946 0 00-7.75 2.742 7.941 7.941 0 00-1.81 5.359 11.452 11.452 0 00-11.844 5.344C.083 34.853-.394 37.942.334 40.926s2.575 5.506 5.2 7.102a.999.999 0 101.039-1.708 9.438 9.438 0 01-4.296-5.867 9.437 9.437 0 011.11-7.185 9.456 9.456 0 0110.49-4.262 7.943 7.943 0 002.546 3.781.999.999 0 001.408-.136 1 1 0 00-.137-1.408 5.956 5.956 0 01-1.985-3.127c-.001-.012-.007-.022-.008-.034a5.992 5.992 0 011.175-5.285 5.974 5.974 0 015.493-2.122 7.928 7.928 0 00-.012 3.674 1 1 0 001.947-.457 6.007 6.007 0 014.467-7.215c3.215-.759 6.456 1.245 7.214 4.467.127.537.665.865 1.203.744.537-.127.87-.665.744-1.203a7.954 7.954 0 00-3.576-4.97 7.999 7.999 0 00-2.378-.981c.2-5.063 4.37-9.123 9.481-9.123 5.094 0 9.253 4.033 9.478 9.073-3.929.504-6.978 3.863-6.978 7.927a1 1 0 102 0c0-3.309 2.691-6 6-6s6.046 2.691 6.046 6v3a1 1 0 002 0v-3c-.002-4.078-3.119-7.448-7.069-7.933z" fill="#abcadd"/><path d="M49.503 40.246l-2.83-1.634 2.83-1.634a1 1 0 10-1-1.732l-2.83 1.634v-3.268a1 1 0 10-2 0v3.268l-2.83-1.634a.999.999 0 10-1 1.732l2.83 1.634-2.83 1.634a1 1 0 101 1.732l2.83-1.634v3.268a1 1 0 102 0v-3.268l2.83 1.634a.998.998 0 001.366-.366 1 1 0 00-.366-1.366zM28.869 35.612a.998.998 0 00-1.366-.366l-2.83 1.634v-3.268a1 1 0 00-2 0v3.268l-2.83-1.634a.999.999 0 10-1 1.732l2.83 1.634-2.83 1.634a1 1 0 101 1.732l2.83-1.634v3.268a1 1 0 002 0v-3.268l2.83 1.634a.997.997 0 001.366-.366 1 1 0 00-.366-1.366l-2.83-1.634 2.83-1.634a1 1 0 00.366-1.366z" fill="#fff"/><path d="M39.869 48.643a.998.998 0 00-1.366-.366l-2.83 1.634v-3.268a1 1 0 00-2 0v3.268l-2.83-1.634a1 1 0 00-1 1.732l2.83 1.634-2.83 1.634a1 1 0 101 1.732l2.83-1.634v3.268a1 1 0 002 0v-3.268l2.83 1.634a.997.997 0 001.366-.366 1 1 0 00-.366-1.366l-2.83-1.634 2.83-1.634a1 1 0 00.366-1.366z" fill="#bdc3c7"/></svg><svg viewBox="0 0 34.637 34.637" id="snowflake" xmlns="http://www.w3.org/2000/svg"><path d="M18.321 11.312l3.703 2.136 1.517-.875 2.114-7.894-1.558-.898-5.776 5.779v1.752zm1-1.338l4.94-4.943.229.133-1.812 6.752-.655.379-2.703-1.561v-.76zm-6.704 3.474l3.703-2.136V9.56l-5.777-5.779-1.557.898 2.114 7.894 1.517.875zm-2.238-8.417l4.941 4.943v.76l-2.703 1.561-.657-.379-1.81-6.752.229-.133zm1.239 14.426V15.18l-1.518-.873-7.892 2.113-.001 1.799 7.895 2.113 1.516-.875zm-8.41-2.007l.001-.264 6.751-1.81.658.381v3.121l-.657.379-6.753-1.807zm28.683 4.016l.945-.254-.26-.968-5.592 1.5 1.797 1.033 2.264-.604.607 2.265.297.172-.375.647-6.529-3.771 7.34-1.965a.25.25 0 00.177-.307.25.25 0 00-.308-.178l-7.822 2.096-2.159-1.248v-5.141l2.162-1.248 7.819 2.096a.249.249 0 00.306-.176.25.25 0 00-.178-.307l-7.338-1.967 6.526-3.77.375.648-.297.172-.604 2.266-2.269-.607-1.789 1.035 5.588 1.498.261-.967-.943-.252.619-2.313.803-.466-2-3.463-.804.466-2.312-.62.254-.943-.967-.26-1.498 5.592 1.793-1.036.607-2.267 2.266.608.295-.172.375.648-6.527 3.77 1.967-7.34a.251.251 0 00-.178-.306.254.254 0 00-.307.177l-2.096 7.822-2.16 1.247-4.454-2.569V9.243l5.726-5.727c.1-.098.1-.256 0-.354a.248.248 0 00-.354 0l-5.372 5.373V1h.753v.342L19.978 3 18.32 4.658v2.068l4.092-4.092-.707-.707-.69.691L19.321.927V0h-4v.927l-1.692 1.691-.691-.691-.707.707 4.092 4.092V4.658L14.664 3l1.658-1.658V1h.75v7.539L11.7 3.166a.248.248 0 00-.354 0 .248.248 0 000 .354l5.726 5.727v2.496l-4.453 2.569-2.16-1.247-2.098-7.822a.25.25 0 00-.484.129l1.967 7.34-6.528-3.77.375-.648.296.172 2.266-.608.606 2.267 1.793 1.036-1.498-5.592-.967.26.254.943-2.312.62-.804-.465-2 3.463.803.466.619 2.313-.945.252.261.967 5.589-1.498-1.79-1.035-2.269.607-.604-2.266-.297-.172.375-.648 6.528 3.77-7.339 1.967a.25.25 0 00.063.49.193.193 0 00.063-.01l7.821-2.096 2.162 1.248v5.141l-2.161 1.248-7.822-2.096a.252.252 0 00-.306.178.249.249 0 00.177.306l7.339 1.967-6.528 3.77-.375-.646.297-.172.606-2.266 2.265.605 1.796-1.035-5.592-1.498-.261.966.946.254-.621 2.312-.803.465 1.999 3.463.803-.463 2.313.619-.254.945.967.26 1.497-5.59-1.791 1.03-.606 2.269-2.267-.605-.295.17-.376-.648 6.527-3.77-1.966 7.338a.25.25 0 00.178.307c.021.006.043.01.063.01.11 0 .212-.073.241-.186l2.097-7.822 2.162-1.248 4.451 2.57v2.494l-5.727 5.727a.25.25 0 000 .354.248.248 0 00.354 0l5.372-5.373v7.539h-.75v-.34l-1.658-1.658 1.658-1.657v-2.07l-4.092 4.094.707.707.69-.691 1.693 1.693v.926h4v-.926l1.691-1.693.69.691.707-.707-4.092-4.094v2.07l1.657 1.657-1.657 1.658v.34h-.75v-7.539l5.372 5.375c.05.05.111.072.177.072s.129-.022.178-.072a.248.248 0 000-.354l-5.726-5.728v-2.495l4.451-2.57 2.16 1.248 2.098 7.822a.247.247 0 00.303.178.25.25 0 00.177-.308l-1.966-7.34 6.535 3.769-.375.649-.295-.17-2.269.604-.604-2.268-1.795-1.031 1.498 5.59.967-.26-.254-.945 2.313-.619.806.464 1.998-3.464-.804-.465-.612-2.311zm-19.023-6.429l.75.434v3.697l-.75.434v-4.565zm4.202 7.275l-3.951-2.281.751-.431 3.2 1.848v.864zm0-2.017l-2.201-1.271 2.201-1.271v2.542zm-2.452-1.706v-2.543l2.201 1.271-2.201 1.272zm2.452-1.705l-2.202-1.271 2.202-1.271v2.542zm0-3.696l-3.203 1.848-.75-.433 3.953-2.28v.865zm.5-.865l3.954 2.28-.75.433-3.204-1.848v-.865zm0 2.018l2.202 1.271-2.202 1.271v-2.542zm2.452 1.705v2.543l-2.201-1.271 2.201-1.272zm-2.452 1.706l2.202 1.271-2.202 1.271v-2.542zm0 4.56v-.865l3.2-1.848.752.432-3.952 2.281zm4.202-2.712l-.75-.435v-3.697l.75-.433V19.6zm1.25-4.421v4.277l1.517.873 7.896-2.113-.003-1.799-7.893-2.113-1.517.875zm8.41 2.007v.264l-6.754 1.81-.655-.381v-3.122l.657-.379 6.752 1.808zM16.32 23.324l-3.702-2.137-1.518.875-2.114 7.895 1.557.898 5.777-5.779v-1.752zm-1 1.338l-4.941 4.943-.229-.133 1.81-6.75.658-.382 2.702 1.562v.76zm6.702-3.474l-3.701 2.137v1.752l5.776 5.779 1.556-.898-2.114-7.895-1.517-.875zm2.24 8.417l-4.94-4.943v-.76l2.701-1.562.655.379 1.812 6.752-.228.134z"/></svg></svg>